<mxfile host="app.diagrams.net" modified="2021-02-24T12:07:10.345Z" agent="5.0 (Windows NT 10.0; Win64; x64) AppleWebKit/537.36 (KHTML, like Gecko) Chrome/88.0.4324.182 Safari/537.36 Edg/88.0.705.74" etag="P_rFXEcvKiJwlXWAGvx8" version="14.4.2" type="github">
  <diagram id="mXj5VXWNXv9QBmRB8gyB" name="Page-1">
    <mxGraphModel dx="2249" dy="762" grid="1" gridSize="10" guides="1" tooltips="1" connect="1" arrows="1" fold="1" page="1" pageScale="1" pageWidth="827" pageHeight="1169" math="0" shadow="0">
      <root>
        <mxCell id="0" />
        <mxCell id="1" parent="0" />
        <mxCell id="0eNjYjWfAuZp5C8Xks8h-27" value="" style="rounded=0;whiteSpace=wrap;html=1;" parent="1" vertex="1">
          <mxGeometry x="20" y="50" width="780" height="540" as="geometry" />
        </mxCell>
        <mxCell id="0eNjYjWfAuZp5C8Xks8h-14" style="edgeStyle=orthogonalEdgeStyle;rounded=0;orthogonalLoop=1;jettySize=auto;html=1;entryX=0;entryY=0.5;entryDx=0;entryDy=0;" parent="1" source="0eNjYjWfAuZp5C8Xks8h-1" target="0eNjYjWfAuZp5C8Xks8h-3" edge="1">
          <mxGeometry relative="1" as="geometry" />
        </mxCell>
        <mxCell id="0eNjYjWfAuZp5C8Xks8h-1" value="«Annotation»&lt;br&gt;&lt;b&gt;Interface&lt;/b&gt;" style="html=1;dropTarget=0;" parent="1" vertex="1">
          <mxGeometry x="54" y="100" width="180" height="90" as="geometry" />
        </mxCell>
        <mxCell id="0eNjYjWfAuZp5C8Xks8h-2" value="" style="shape=module;jettyWidth=8;jettyHeight=4;" parent="0eNjYjWfAuZp5C8Xks8h-1" vertex="1">
          <mxGeometry x="1" width="20" height="20" relative="1" as="geometry">
            <mxPoint x="-27" y="7" as="offset" />
          </mxGeometry>
        </mxCell>
        <mxCell id="0eNjYjWfAuZp5C8Xks8h-15" style="edgeStyle=orthogonalEdgeStyle;rounded=0;orthogonalLoop=1;jettySize=auto;html=1;entryX=0;entryY=0.5;entryDx=0;entryDy=0;" parent="1" source="0eNjYjWfAuZp5C8Xks8h-3" target="0eNjYjWfAuZp5C8Xks8h-6" edge="1">
          <mxGeometry relative="1" as="geometry" />
        </mxCell>
        <mxCell id="0eNjYjWfAuZp5C8Xks8h-3" value="«Annotation»&lt;br&gt;&lt;b&gt;initializeNodes&lt;/b&gt;" style="html=1;dropTarget=0;" parent="1" vertex="1">
          <mxGeometry x="324" y="100" width="180" height="90" as="geometry" />
        </mxCell>
        <mxCell id="0eNjYjWfAuZp5C8Xks8h-4" value="" style="shape=module;jettyWidth=8;jettyHeight=4;" parent="0eNjYjWfAuZp5C8Xks8h-3" vertex="1">
          <mxGeometry x="1" width="20" height="20" relative="1" as="geometry">
            <mxPoint x="-27" y="7" as="offset" />
          </mxGeometry>
        </mxCell>
        <mxCell id="0eNjYjWfAuZp5C8Xks8h-17" style="edgeStyle=orthogonalEdgeStyle;rounded=0;orthogonalLoop=1;jettySize=auto;html=1;" parent="1" source="0eNjYjWfAuZp5C8Xks8h-6" target="0eNjYjWfAuZp5C8Xks8h-8" edge="1">
          <mxGeometry relative="1" as="geometry" />
        </mxCell>
        <mxCell id="0eNjYjWfAuZp5C8Xks8h-6" value="«Annotation»&lt;br&gt;&lt;b&gt;initializeEdges&lt;/b&gt;" style="html=1;dropTarget=0;" parent="1" vertex="1">
          <mxGeometry x="594" y="100" width="180" height="90" as="geometry" />
        </mxCell>
        <mxCell id="0eNjYjWfAuZp5C8Xks8h-7" value="" style="shape=module;jettyWidth=8;jettyHeight=4;" parent="0eNjYjWfAuZp5C8Xks8h-6" vertex="1">
          <mxGeometry x="1" width="20" height="20" relative="1" as="geometry">
            <mxPoint x="-27" y="7" as="offset" />
          </mxGeometry>
        </mxCell>
        <mxCell id="0eNjYjWfAuZp5C8Xks8h-18" style="edgeStyle=orthogonalEdgeStyle;rounded=0;orthogonalLoop=1;jettySize=auto;html=1;" parent="1" source="0eNjYjWfAuZp5C8Xks8h-8" target="0eNjYjWfAuZp5C8Xks8h-10" edge="1">
          <mxGeometry relative="1" as="geometry" />
        </mxCell>
        <mxCell id="0eNjYjWfAuZp5C8Xks8h-8" value="«Annotation»&lt;br&gt;&lt;b&gt;startCytoscape&lt;/b&gt;" style="html=1;dropTarget=0;" parent="1" vertex="1">
          <mxGeometry x="594" y="270" width="180" height="90" as="geometry" />
        </mxCell>
        <mxCell id="0eNjYjWfAuZp5C8Xks8h-9" value="" style="shape=module;jettyWidth=8;jettyHeight=4;" parent="0eNjYjWfAuZp5C8Xks8h-8" vertex="1">
          <mxGeometry x="1" width="20" height="20" relative="1" as="geometry">
            <mxPoint x="-27" y="7" as="offset" />
          </mxGeometry>
        </mxCell>
        <mxCell id="0eNjYjWfAuZp5C8Xks8h-19" style="edgeStyle=orthogonalEdgeStyle;rounded=0;orthogonalLoop=1;jettySize=auto;html=1;entryX=0.5;entryY=1;entryDx=0;entryDy=0;" parent="1" source="0eNjYjWfAuZp5C8Xks8h-10" target="0eNjYjWfAuZp5C8Xks8h-3" edge="1">
          <mxGeometry relative="1" as="geometry" />
        </mxCell>
        <mxCell id="0eNjYjWfAuZp5C8Xks8h-26" style="edgeStyle=orthogonalEdgeStyle;rounded=0;orthogonalLoop=1;jettySize=auto;html=1;entryX=1;entryY=0.5;entryDx=0;entryDy=0;" parent="1" source="0eNjYjWfAuZp5C8Xks8h-10" target="0eNjYjWfAuZp5C8Xks8h-24" edge="1">
          <mxGeometry relative="1" as="geometry" />
        </mxCell>
        <mxCell id="0eNjYjWfAuZp5C8Xks8h-10" value="«Annotation»&lt;br&gt;&lt;b&gt;winConditions&lt;/b&gt;" style="html=1;dropTarget=0;" parent="1" vertex="1">
          <mxGeometry x="594" y="440" width="180" height="90" as="geometry" />
        </mxCell>
        <mxCell id="0eNjYjWfAuZp5C8Xks8h-11" value="" style="shape=module;jettyWidth=8;jettyHeight=4;" parent="0eNjYjWfAuZp5C8Xks8h-10" vertex="1">
          <mxGeometry x="1" width="20" height="20" relative="1" as="geometry">
            <mxPoint x="-27" y="7" as="offset" />
          </mxGeometry>
        </mxCell>
        <mxCell id="0eNjYjWfAuZp5C8Xks8h-31" style="edgeStyle=orthogonalEdgeStyle;rounded=0;orthogonalLoop=1;jettySize=auto;html=1;" parent="1" source="0eNjYjWfAuZp5C8Xks8h-24" target="0eNjYjWfAuZp5C8Xks8h-30" edge="1">
          <mxGeometry relative="1" as="geometry" />
        </mxCell>
        <mxCell id="0eNjYjWfAuZp5C8Xks8h-24" value="«Annotation»&lt;br&gt;&lt;b&gt;destroyGame&lt;/b&gt;" style="html=1;dropTarget=0;" parent="1" vertex="1">
          <mxGeometry x="54" y="440" width="180" height="90" as="geometry" />
        </mxCell>
        <mxCell id="0eNjYjWfAuZp5C8Xks8h-25" value="" style="shape=module;jettyWidth=8;jettyHeight=4;" parent="0eNjYjWfAuZp5C8Xks8h-24" vertex="1">
          <mxGeometry x="1" width="20" height="20" relative="1" as="geometry">
            <mxPoint x="-27" y="7" as="offset" />
          </mxGeometry>
        </mxCell>
        <mxCell id="0eNjYjWfAuZp5C8Xks8h-29" style="edgeStyle=orthogonalEdgeStyle;rounded=0;orthogonalLoop=1;jettySize=auto;html=1;" parent="1" source="0eNjYjWfAuZp5C8Xks8h-28" target="0eNjYjWfAuZp5C8Xks8h-1" edge="1">
          <mxGeometry relative="1" as="geometry" />
        </mxCell>
        <mxCell id="0eNjYjWfAuZp5C8Xks8h-28" value="" style="whiteSpace=wrap;html=1;aspect=fixed;" parent="1" vertex="1">
          <mxGeometry x="10" y="135" width="20" height="20" as="geometry" />
        </mxCell>
        <mxCell id="0eNjYjWfAuZp5C8Xks8h-30" value="" style="whiteSpace=wrap;html=1;aspect=fixed;" parent="1" vertex="1">
          <mxGeometry x="10" y="475" width="20" height="20" as="geometry" />
        </mxCell>
        <mxCell id="0eNjYjWfAuZp5C8Xks8h-32" value="Modus" style="text;html=1;strokeColor=none;fillColor=none;align=center;verticalAlign=middle;whiteSpace=wrap;rounded=0;" parent="1" vertex="1">
          <mxGeometry x="-50" y="135" width="40" height="20" as="geometry" />
        </mxCell>
      </root>
    </mxGraphModel>
  </diagram>
</mxfile>
